<svg width="16" height="16" viewBox="0 0 16 16" fill="none" xmlns="http://www.w3.org/2000/svg">
<path d="M3.65342 4.96473e-05L14.4706 4.8737e-05C14.8931 -0.00332594 15.2751 0.16878 15.5523 0.4455C15.8295 0.722219 16.0003 1.10372 16 1.52521V12.324C16 13.1677 15.3155 13.851 14.4704 13.851C13.6253 13.851 12.9408 13.1677 12.9408 12.324L12.9426 5.21048L2.5717 15.5638C1.97372 16.1608 1.03601 16.1298 0.469121 15.5638C-0.0977647 14.9979 -0.18971 14.001 0.408275 13.4041L10.7792 3.05071L3.65342 3.05071C2.80833 3.05071 2.1238 2.36735 2.1238 1.5237C2.1238 0.680038 2.80833 4.97184e-05 3.65342 4.96473e-05Z" fill="#232323"/>
</svg>
